<svg width="520" height="479" viewBox="0 0 520 479" fill="none" xmlns="http://www.w3.org/2000/svg">
<path d="M235.974 142.338C155.763 154.987 94.7391 82.0625 160.667 27.908C200.006 -4.40979 215.582 38.8454 266.366 40.1381C289.951 40.7338 318.949 3.66333 337.478 36.4627C356.006 69.2621 351.19 124.177 235.974 142.338Z" fill="#181818"/>
<path d="M259.294 501.51C287.34 548.162 457.231 452.704 408.45 413.111C373.559 384.798 223.326 441.665 259.294 501.51Z" fill="#181818"/>
<path d="M39.114 433.541C67.7311 491.168 227.533 490.813 298.189 366.092C318.796 329.718 333.878 424.733 402.683 392.428C471.501 360.122 538.506 287.236 512.842 216.847C479.979 126.712 332.496 123.62 214.619 169.067C90.645 216.847 1.29579 357.41 39.1013 433.541H39.114Z" fill="#181818"/>
<path d="M421.922 9.03616C417.385 10.481 416.561 11.6596 415.535 18.0725C414.508 11.6596 413.684 10.481 409.147 9.03616C413.684 7.59136 414.508 6.41271 415.535 -0.000152588C416.561 6.41271 417.385 7.59136 421.922 9.03616Z" fill="white"/>
<path d="M424.14 271.432C419.603 272.877 418.779 274.055 417.753 280.468C416.726 274.055 415.902 272.877 411.365 271.432C415.902 269.987 416.726 268.809 417.753 262.396C418.779 268.809 419.603 269.987 424.14 271.432Z" fill="white"/>
<path d="M104.27 277.705C99.7332 279.15 98.9094 280.328 97.8829 286.741C96.8563 280.328 96.0325 279.15 91.4954 277.705C96.0325 276.26 96.8563 275.081 97.8829 268.668C98.9094 275.081 99.7332 276.26 104.27 277.705Z" fill="white"/>
<path d="M404.762 37.5264C392.203 40.6821 390.631 43.2295 388.68 63.5073C386.728 43.2295 385.144 40.6821 372.597 37.5264C385.156 34.3706 386.728 31.8232 388.68 11.5454C390.631 31.8232 392.215 34.3706 404.762 37.5264Z" fill="white"/>
<path d="M297.264 54.9791C297.264 56.4746 296.022 57.6913 294.476 57.6913C292.93 57.6913 291.688 56.4746 291.688 54.9791C291.688 53.4836 292.93 52.267 294.476 52.267C296.022 52.267 297.264 53.4836 297.264 54.9791Z" fill="#F09535"/>
<path d="M370.404 473.323C370.404 474.819 369.162 476.035 367.615 476.035C366.069 476.035 364.827 474.819 364.827 473.323C364.827 471.828 366.069 470.611 367.615 470.611C369.162 470.611 370.404 471.828 370.404 473.323Z" fill="#F09535"/>
<path d="M45.4771 104.052C45.4771 104.774 44.8814 105.357 44.1337 105.357C43.3859 105.357 42.7903 104.774 42.7903 104.052C42.7903 103.329 43.3859 102.746 44.1337 102.746C44.8814 102.746 45.4771 103.329 45.4771 104.052Z" fill="#F09535"/>
<path d="M318.861 43.2814C318.861 44.0037 318.265 44.5867 317.517 44.5867C316.769 44.5867 316.174 44.0037 316.174 43.2814C316.174 42.559 316.769 41.976 317.517 41.976C318.265 41.976 318.861 42.559 318.861 43.2814Z" fill="#F09535"/>
<path d="M105.601 352.493C105.601 353.215 105.005 353.798 104.257 353.798C103.51 353.798 102.914 353.215 102.914 352.493C102.914 351.77 103.51 351.187 104.257 351.187C105.005 351.187 105.601 351.77 105.601 352.493Z" fill="#F09535"/>
<path d="M122.292 272.624C122.292 273.346 121.696 273.929 120.949 273.929C120.201 273.929 119.605 273.346 119.605 272.624C119.605 271.901 120.201 271.318 120.949 271.318C121.696 271.318 122.292 271.901 122.292 272.624Z" fill="#F09535"/>
<path d="M213.517 435.644C213.517 436.367 212.921 436.95 212.173 436.95C211.426 436.95 210.83 436.367 210.83 435.644C210.83 434.922 211.426 434.339 212.173 434.339C212.921 434.339 213.517 434.922 213.517 435.644Z" fill="#F09535"/>
<path d="M212.174 44.5738C212.174 45.2962 211.578 45.8792 210.83 45.8792C210.083 45.8792 209.487 45.2962 209.487 44.5738C209.487 43.8514 210.083 43.2684 210.83 43.2684C211.578 43.2684 212.174 43.8514 212.174 44.5738Z" fill="#F09535"/>
<path d="M80.1779 49.668C82.4527 49.668 84.2968 46.8082 84.2968 43.2805C84.2968 39.7527 82.4527 36.8929 80.1779 36.8929C77.9031 36.8929 76.059 39.7527 76.059 43.2805C76.059 46.8082 77.9031 49.668 80.1779 49.668Z" fill="white"/>
<path d="M461.844 180.917C463.384 180.917 464.632 179.702 464.632 178.205C464.632 176.707 463.384 175.492 461.844 175.492C460.304 175.492 459.056 176.707 459.056 178.205C459.056 179.702 460.304 180.917 461.844 180.917Z" fill="white"/>
<path d="M90.0757 477.125C91.6156 477.125 92.8639 475.91 92.8639 474.412C92.8639 472.914 91.6156 471.7 90.0757 471.7C88.5358 471.7 87.2875 472.914 87.2875 474.412C87.2875 475.91 88.5358 477.125 90.0757 477.125Z" fill="white"/>
<path d="M254.136 10.342C254.878 10.342 255.48 9.75754 255.48 9.0366C255.48 8.31566 254.878 7.73122 254.136 7.73122C253.394 7.73122 252.793 8.31566 252.793 9.0366C252.793 9.75754 253.394 10.342 254.136 10.342Z" fill="white"/>
<path d="M507.051 84.6603C507.051 85.3827 506.456 85.9657 505.708 85.9657C504.96 85.9657 504.365 85.3827 504.365 84.6603C504.365 83.9379 504.96 83.3549 505.708 83.3549C506.456 83.3549 507.051 83.9379 507.051 84.6603Z" fill="white"/>
<path d="M13.2605 371.198C13.2605 371.921 12.6649 372.504 11.9171 372.504C11.1694 372.504 10.5737 371.921 10.5737 371.198C10.5737 370.476 11.1694 369.893 11.9171 369.893C12.6649 369.893 13.2605 370.476 13.2605 371.198Z" fill="white"/>
<path d="M435.66 283.712C435.66 284.435 435.065 285.018 434.317 285.018C433.569 285.018 432.974 284.435 432.974 283.712C432.974 282.99 433.569 282.407 434.317 282.407C435.065 282.407 435.66 282.99 435.66 283.712Z" fill="white"/>
<path d="M408.197 202.474C406.892 184.655 423.329 176.62 426.181 183.933C429.21 191.702 413.583 196.67 408.197 202.474Z" fill="#F09535"/>
<g style="mix-blend-mode:screen" opacity="0.3">
<path d="M415.662 188.09C416.663 190.612 423.469 184.567 421.606 183.54C419.743 182.513 414.75 185.796 415.662 188.09Z" fill="#F09535"/>
</g>
<path d="M408.996 194.604C408.996 194.604 408.881 194.604 408.831 194.578C408.489 194.49 408.298 194.135 408.387 193.793C409.908 188.394 413.368 183.895 417.664 181.74C417.968 181.588 418.361 181.715 418.513 182.019C418.666 182.336 418.539 182.716 418.235 182.868C414.255 184.858 411.036 189.065 409.617 194.135C409.54 194.414 409.287 194.591 409.008 194.591L408.996 194.604Z" fill="white"/>
<path d="M426.561 185.961C425.015 191.094 414.04 196.341 408.438 196.556C408.146 198.381 408.045 200.358 408.197 202.462C413.089 197.177 426.472 192.589 426.561 185.948V185.961Z" fill="#C97324"/>
<path d="M61.9026 346.157C43.8046 338.907 28.5455 352.417 34.4514 357.576C40.7249 363.063 54.6152 349.249 61.9026 346.157Z" fill="#F09535"/>
<path d="M33.2095 355.369C33.3362 356.193 33.7291 356.941 34.4515 357.575C40.7249 363.062 54.6153 349.248 61.9026 346.156C54.6279 346.308 38.8112 359.729 33.2095 355.369Z" fill="#C97324"/>
<g style="mix-blend-mode:screen" opacity="0.3">
<path d="M36.1878 352.733C37.3791 354.381 44.4764 350.452 42.1825 349.312C39.9012 348.184 34.9331 351.01 36.1878 352.733Z" fill="#F09535"/>
</g>
<path d="M40.7252 347.017C40.4844 347.017 40.2562 346.89 40.1548 346.65C40.0028 346.333 40.1422 345.953 40.459 345.8C44.7427 343.76 49.8629 342.987 54.8943 343.633C55.2365 343.684 55.49 344.001 55.4393 344.343C55.3886 344.685 55.0844 344.939 54.7295 344.888C49.9516 344.267 45.0722 345.002 41.004 346.941C40.9153 346.979 40.8266 347.004 40.7378 347.004L40.7252 347.017Z" fill="white"/>
<path d="M124.207 432.375C121 433.35 124.904 437.038 123.611 438.255C120.696 441.018 118.922 446.341 125.157 447.279C131.595 448.255 134.726 429.155 124.207 432.362V432.375Z" fill="#F09535"/>
<path d="M125.157 445.923C122.47 445.517 121.279 444.288 121.013 442.805C120.696 444.858 121.672 446.759 125.157 447.291C128.757 447.836 131.317 442.121 131.038 437.533C130.797 441.816 128.402 446.417 125.157 445.923Z" fill="#C97324"/>
<g style="mix-blend-mode:screen" opacity="0.3">
<path d="M125.436 433.49C124.144 434.339 128.82 436.126 128.998 435.53C129.175 434.935 127.756 431.969 125.436 433.49Z" fill="#F09535"/>
</g>
<path d="M455.001 213.577C452.2 206.302 455.089 200.941 461.287 198.521C467.484 196.1 474.214 200.549 482.287 197.444C486.976 195.644 490.931 193.603 491.843 194.909C492.756 196.214 491.982 200.954 485.988 207.481C478.815 215.301 472.769 219.077 466.331 218.571C463.251 218.33 456.306 216.974 455.001 213.59V213.577Z" fill="#E04419"/>
<g style="mix-blend-mode:screen" opacity="0.25">
<path d="M458.08 204.668C459.309 207.799 469.562 200.904 468.143 199.916C466.723 198.927 456.267 200.03 458.08 204.668Z" fill="white"/>
</g>
<path d="M454.507 212.082C454.646 212.576 454.811 213.071 455.001 213.578C456.306 216.961 463.251 218.317 466.331 218.558C472.757 219.065 478.802 215.288 485.988 207.469C491.983 200.942 492.756 196.202 491.843 194.897C491.742 194.757 491.615 194.668 491.45 194.592C488.852 204.224 474.607 216.493 462.973 213.641C462.973 213.641 466.724 209.37 465.127 208.495C464.303 208.039 455.66 212.564 454.507 212.069V212.082Z" fill="#942B13"/>
<path d="M435.521 216.086C443.645 218.57 453.188 213.083 453.188 213.083C452.44 208.888 454.607 204.211 454.607 204.211C455.444 207.253 456.331 209.711 457.104 209.965C458.409 210.383 464.582 208.051 465.126 208.507C465.887 209.166 462.985 212.601 460.488 213.577C464.303 215.224 467.839 218.976 467.839 218.976C459.081 218.165 454.721 215.415 454.721 215.415C446.965 222.309 435.508 218.317 435.508 218.317C434.545 216.859 435.508 216.086 435.508 216.086H435.521Z" fill="#1C7F36"/>
<path d="M440.121 217.366C438.524 217.366 436.902 217.176 435.331 216.682C435.001 216.581 434.811 216.226 434.912 215.896C435.014 215.567 435.369 215.377 435.698 215.478C442.567 217.569 450.653 213.691 452.478 212.741C451.92 208.533 453.935 204.148 454.024 203.945C454.088 203.793 454.214 203.692 454.354 203.628C455.596 201.119 457.902 199.154 461.045 197.925C464.1 196.734 467.205 197.114 470.5 197.52C474.137 197.976 477.901 198.432 482.046 196.835C482.983 196.48 483.896 196.1 484.758 195.758C488.725 194.148 491.335 193.071 492.349 194.541C492.552 194.833 492.476 195.226 492.197 195.428C491.918 195.631 491.513 195.555 491.31 195.276C490.866 194.655 487.609 195.973 485.239 196.949C484.378 197.304 483.452 197.672 482.515 198.039C478.079 199.75 473.972 199.243 470.361 198.787C467.23 198.394 464.277 198.026 461.527 199.116C458.46 200.32 456.305 202.259 455.279 204.718C455.216 204.87 455.101 204.984 454.962 205.048C454.442 206.378 453.264 209.851 453.821 212.981C453.872 213.248 453.745 213.514 453.517 213.64C453.2 213.83 446.914 217.379 440.147 217.379L440.121 217.366Z" fill="white"/>
<path d="M185.61 451.157C191.237 445.758 197.295 446.354 201.934 451.119C206.56 455.897 205.064 463.818 211.046 470.066C214.519 473.691 217.928 476.555 217.079 477.899C216.23 479.242 211.566 480.37 203.226 477.367C193.24 473.78 187.422 469.661 185.395 463.54C184.431 460.612 182.987 453.679 185.61 451.17V451.157Z" fill="#1CC73E"/>
<path d="M211.046 470.7C210.881 470.7 210.716 470.637 210.59 470.51C207.295 467.076 206.179 463.096 205.191 459.585C204.342 456.556 203.531 453.692 201.477 451.563C201.237 451.31 201.237 450.917 201.49 450.663C201.744 450.422 202.136 450.422 202.39 450.663C204.671 453.021 205.52 456.024 206.42 459.218C207.409 462.754 208.435 466.404 211.515 469.61C211.756 469.864 211.743 470.269 211.502 470.51C211.376 470.624 211.223 470.688 211.059 470.688L211.046 470.7Z" fill="white"/>
<g style="mix-blend-mode:screen" opacity="0.25">
<path d="M195.014 450.548C192.606 452.893 202.922 459.686 203.29 457.988C203.657 456.29 198.588 447.076 195.014 450.548Z" fill="white"/>
</g>
<g style="mix-blend-mode:multiply">
<path d="M186.788 450.117C186.396 450.433 185.99 450.776 185.597 451.156C182.974 453.678 184.419 460.598 185.382 463.525C187.409 469.647 193.214 473.766 203.214 477.352C211.553 480.356 216.217 479.228 217.066 477.885C217.155 477.745 217.193 477.58 217.193 477.403C207.307 478.734 190.477 470.344 188.613 458.519C188.613 458.519 194 460.332 194.19 458.519C194.291 457.581 186.776 451.371 186.788 450.104V450.117Z" fill="#1CC73E"/>
</g>
<path d="M175.762 434.162C176.611 442.602 185.356 449.294 185.356 449.294C188.93 446.975 194.088 447.178 194.088 447.178C191.604 449.117 189.678 450.904 189.754 451.702C189.881 453.071 194.418 457.862 194.202 458.533C193.886 459.484 189.589 458.153 187.739 456.227C187.688 460.371 185.61 465.098 185.61 465.098C182.974 456.708 183.823 451.626 183.823 451.626C174.47 447.14 173.722 435.036 173.722 435.036C174.698 433.592 175.775 434.175 175.775 434.175L175.762 434.162Z" fill="#1C7F36"/>
<path d="M431.998 319.224C434.849 301.19 446.712 290.024 450.768 290.227C459.259 290.645 459.588 299.352 460.387 298.503C461.185 297.654 464.164 292.863 468.637 293.776C473.846 294.84 473.39 298.883 474.822 298.097C476.254 297.312 484.061 294.523 485.772 296.729C487.483 298.921 484.771 310.568 479.03 315.714C471.299 322.634 464.379 316.943 463.467 319.224C462.554 321.493 457.966 329.11 451.908 329.161C447.827 329.199 444.355 326.841 440.907 327.145C437.473 327.437 431.161 324.522 431.998 319.224Z" fill="#1C7F36"/>
<g style="mix-blend-mode:multiply">
<path d="M485.088 305.436C486.355 301.482 486.647 297.857 485.772 296.729C484.061 294.536 476.254 297.325 474.822 298.098C473.39 298.883 473.846 294.828 468.638 293.776C464.164 292.863 461.186 297.667 460.387 298.503C459.589 299.352 459.259 290.646 450.768 290.227C453.366 292.23 443.772 307.438 451.693 310.062C452.048 310.176 452.39 310.264 452.72 310.328C450.92 314.358 445.572 325.485 440.895 327.146C442.555 327.006 444.228 327.475 445.964 328.007C449.627 323.698 453.493 315.346 453.493 310.442C460.108 311.063 462.96 302.179 464.202 301.748C465.545 301.266 465.152 309.745 470.539 308.642C475.925 307.54 480.462 300.354 483.06 299.847C485.658 299.34 485.088 305.436 485.088 305.436Z" fill="#1CC73E"/>
</g>
<path d="M485.772 296.729C484.062 294.536 476.255 297.325 474.822 298.098C473.39 298.883 473.847 294.828 468.638 293.776C464.164 292.863 461.186 297.667 460.387 298.503C459.589 299.352 459.259 290.646 450.768 290.227C454.722 291.026 446.586 306.855 453.683 307.438C458.03 307.793 459.044 299.251 465.33 297.616C468.359 296.83 466.673 303.535 469.804 304.511C474.138 305.854 478.967 296.602 484.138 296.83C486.431 296.932 485.671 302.381 485.088 305.436C486.355 301.482 486.647 297.857 485.772 296.729Z" fill="#1CC73E"/>
<path d="M431.998 319.858C431.998 319.858 431.934 319.858 431.896 319.858C431.554 319.807 431.313 319.478 431.364 319.136C434.266 300.797 446.218 289.606 450.666 289.606C450.704 289.606 450.755 289.606 450.793 289.606C453.188 290.087 452.618 293.433 451.946 297.299C451.376 300.607 450.729 304.358 451.997 305.98C452.377 306.475 452.947 306.753 453.72 306.817C455.457 306.956 456.635 305.271 458.106 303.116C459.791 300.67 461.692 297.907 465.152 297.007C465.494 296.919 465.837 297.121 465.925 297.464C466.014 297.806 465.811 298.148 465.469 298.237C462.465 299.022 460.704 301.583 459.145 303.838C457.573 306.12 456.078 308.3 453.606 308.071C452.478 307.983 451.591 307.539 450.983 306.753C449.386 304.688 450.045 300.822 450.691 297.083C451.173 294.27 451.718 291.076 450.628 290.861C447.447 290.683 435.534 300.86 432.606 319.338C432.556 319.655 432.289 319.871 431.985 319.871L431.998 319.858Z" fill="white"/>
<path d="M438.753 83.0384C431.745 79.2997 423.671 79.6926 419.502 85.4464C411.061 97.0935 408.983 119.399 409.211 121.009C409.439 122.644 415.053 123.974 415.053 123.974C415.053 123.974 425.04 92.4549 428.361 88.3614C431.681 84.2678 438.753 83.0511 438.753 83.0511V83.0384Z" fill="#AF52DB"/>
<g style="mix-blend-mode:multiply">
<path d="M420.82 106.638C417.563 105.649 414.192 104.597 411.847 103.786C411.645 104.622 411.442 105.446 411.264 106.27C413.698 107.106 416.955 108.12 419.984 109.046C420.263 108.247 420.529 107.449 420.82 106.65V106.638Z" fill="#AF52DB"/>
<path d="M417.753 88.1593C421.809 89.6547 424.521 90.9348 426.397 92.012C426.802 91.1122 427.17 90.3518 427.499 89.7181C425.585 88.6282 422.924 87.3862 419.135 85.9667C418.653 86.6638 418.197 87.3988 417.753 88.1593Z" fill="#AF52DB"/>
<path d="M424.091 97.6634C420.935 96.7762 417.348 95.8131 414.497 95.192C414.193 95.9778 413.914 96.7763 413.648 97.5874C416.106 98.1323 419.554 99.0322 423.191 100.059C423.495 99.2349 423.799 98.4492 424.091 97.6761V97.6634Z" fill="#AF52DB"/>
<path d="M427.943 80.6941C426.169 80.8842 424.496 81.4165 423.013 82.2783C425.877 82.5571 429.692 83.7738 432.544 85.1425C433.583 84.6103 434.622 84.192 435.56 83.8878C433.532 82.6712 430.731 81.5052 427.943 80.7068V80.6941Z" fill="#AF52DB"/>
<path d="M417.347 116.877C414.635 115.977 411.885 114.95 409.857 113.975C409.718 114.925 409.604 115.812 409.515 116.611C411.606 117.561 414.141 118.486 416.562 119.297C416.802 118.562 417.069 117.751 417.36 116.889L417.347 116.877Z" fill="#AF52DB"/>
</g>
<path d="M432.619 88.0064C446.345 93.6969 442.745 112.644 441.643 131.11C441.465 134.075 447.359 134.316 447.359 134.316C455.736 86.1561 435.851 82.7849 432.619 88.0064Z" fill="#D2F0F7"/>
<path d="M448.208 133.949C454.634 111.846 450.679 85.1553 436.421 82.3164C422.164 79.4775 416.955 107.892 415.054 123.962C415.054 123.962 418.057 124.938 419.54 124.076C419.54 124.076 425.966 84.5469 436.13 87.2971C452.555 91.7456 444.824 128.981 444.482 132.035C444.431 133.911 447.853 134.874 448.208 133.949Z" fill="white"/>
<path d="M53.4614 411.197C55.7807 418.801 61.7626 424.226 68.7712 423.11C82.9657 420.842 100.214 406.546 101.203 405.241C102.192 403.923 99.1626 399.018 99.1626 399.018C99.1626 399.018 69.8231 414.252 64.5635 414.796C59.304 415.341 53.4487 411.197 53.4487 411.197H53.4614Z" fill="#AF52DB"/>
<g style="mix-blend-mode:multiply">
<path d="M82.8263 407.191C84.4358 410.195 86.0707 413.325 87.1607 415.556C87.8958 415.112 88.6181 414.668 89.3279 414.212C88.1999 411.906 86.6157 408.877 85.1202 406.088C84.3598 406.456 83.5994 406.823 82.839 407.191H82.8263Z" fill="#AF52DB"/>
<path d="M71.9396 422.425C70.1272 418.496 69.1133 415.683 68.5557 413.591C67.6432 413.946 66.8448 414.225 66.1477 414.428C66.7307 416.544 67.7319 419.307 69.4175 422.995C70.254 422.843 71.0904 422.653 71.9396 422.425Z" fill="#AF52DB"/>
<path d="M74.1699 411.234C75.7795 414.098 77.6298 417.317 79.2014 419.763C79.9745 419.408 80.7349 419.054 81.4953 418.673C80.1519 416.557 78.3396 413.477 76.4892 410.182C75.6908 410.55 74.9177 410.892 74.1699 411.234Z" fill="#AF52DB"/>
<path d="M59.443 420.486C60.8371 421.601 62.3833 422.412 64.0435 422.856C62.2185 420.638 60.3809 417.077 59.3289 414.086C58.2137 413.731 57.1871 413.287 56.3126 412.844C56.8956 415.138 58.0362 417.951 59.443 420.486Z" fill="#AF52DB"/>
<path d="M92.521 402.401C93.801 404.961 95.0304 407.622 95.7654 409.752C96.5385 409.181 97.2356 408.636 97.8693 408.129C97.0582 405.975 95.9302 403.529 94.7896 401.248C94.0925 401.602 93.3321 401.983 92.521 402.388V402.401Z" fill="#AF52DB"/>
</g>
<path d="M61.3062 412.02C55.6157 398.295 71.5719 387.446 85.3988 375.165C87.6167 373.201 83.6245 368.854 83.6245 368.854C43.6391 396.989 55.3242 413.427 61.3062 412.02Z" fill="#D2F0F7"/>
<path d="M82.7755 368.511C62.6118 379.588 46.5289 401.273 54.602 413.364C62.6751 425.454 86.4509 409.042 99.1626 399.03C99.1626 399.03 97.7304 396.216 96.0702 395.772C96.0702 395.772 63.575 419.181 58.3281 410.043C49.8621 395.278 81.6476 374.417 84.0556 372.504C85.4117 371.211 83.6754 368.106 82.7755 368.524V368.511Z" fill="white"/>
<path d="M55.2609 267.225C51.801 263.854 41.9663 271.572 45.0967 275.007C57.9477 289.112 73.7644 314.789 76.9329 324.827C80.1013 334.864 88.8461 327.983 88.8461 325.651C88.8081 313.75 73.9419 285.462 55.2609 267.225Z" fill="#F09535"/>
<path d="M87.6041 327.741C79.7084 331.201 79.9112 317.032 76.1598 313.699C72.1422 310.125 71.8634 304.282 68.2641 300.822C64.3479 297.058 67.0474 293.421 60.0389 288.934C56.4269 286.628 54.9314 282.522 52.3207 279.784C50.3055 277.68 47.1245 275.969 44.5644 272.788C44.3869 273.599 44.5264 274.372 45.0967 274.993C57.9478 289.099 73.7645 314.776 76.9329 324.814C79.3662 332.519 85.0694 330.251 87.6041 327.741Z" fill="#C97324"/>
<path d="M56.9596 280.748C54.7417 280.672 59.6464 288.466 61.8136 287.288C63.9681 286.096 60.166 280.875 56.9596 280.748Z" fill="#C97324"/>
<path d="M73.0801 303.535C73.0041 305.475 75.4374 309.809 77.5666 310.164C80.228 310.607 81.0265 306.704 79.1508 306.767C77.2751 306.831 76.6414 304.004 76.5907 303.117C76.4766 301.013 73.1435 301.926 73.0801 303.535Z" fill="#C97324"/>
<g style="mix-blend-mode:color-burn" opacity="0.25">
<path d="M88.8457 325.638C88.8457 323.94 88.5288 321.912 87.9585 319.631C83.472 316.07 76.2734 311.064 69.4677 309.403C73.0923 315.702 75.8172 321.241 76.9451 324.814C80.1135 334.852 88.8583 327.97 88.8583 325.638H88.8457Z" fill="#181818"/>
</g>
<g style="mix-blend-mode:screen" opacity="0.3">
<path d="M74.576 297.338C71.5216 297.819 74.8168 301.178 75.6406 300.392C76.477 299.606 77.5796 296.869 74.576 297.338Z" fill="#F09535"/>
<path d="M47.771 273.891C46.5163 272.637 50.6606 266.135 53.4741 267.757C56.2877 269.379 61.5092 275.513 61.75 276.312C61.9908 277.098 60.4446 278.137 58.5816 275.754C56.7186 273.372 55.7681 267.719 53.3981 270.292C51.0281 272.865 49.1651 275.285 47.771 273.891Z" fill="#F09535"/>
<path d="M68.872 287.605C67.2751 287.833 71.9264 294.892 72.7121 294.22C73.4979 293.549 71.6095 287.212 68.872 287.605Z" fill="#F09535"/>
</g>
<path d="M81.4447 303.928C81.2165 303.928 80.9884 303.801 80.8743 303.585C74.132 290.342 64.6267 277.262 54.8173 267.681C53.2078 266.11 49.5451 267.567 47.1371 269.899C45.705 271.28 44.4376 273.346 45.5656 274.588C45.8064 274.842 45.781 275.247 45.5275 275.488C45.2741 275.729 44.8685 275.703 44.6277 275.45C43.1702 273.853 43.7912 271.382 46.2626 268.999C49.1522 266.211 53.4739 264.614 55.7045 266.794C65.6153 276.464 75.1965 289.67 82.0023 303.028C82.167 303.345 82.0403 303.725 81.7235 303.877C81.6348 303.928 81.5334 303.94 81.432 303.94L81.4447 303.928Z" fill="white"/>
<path d="M34.5143 299.644C29.7617 298.77 25.8835 310.658 30.3954 311.76C48.9242 316.323 76.35 328.857 84.5752 335.435C92.8004 342.012 96.235 331.43 94.9296 329.491C88.2759 319.618 60.1784 304.397 34.5143 299.644Z" fill="#F09535"/>
<path d="M93.7638 335.054C88.2761 335.954 80.3804 328.743 76.629 325.422C72.4214 321.696 68.239 322.736 63.8793 321.139C59.5196 319.555 56.9848 315.436 53.7404 313.294C50.4959 311.152 44.2352 312.419 40.281 311.95C36.6436 311.519 33.133 310.797 28.9 305.221C28.0002 308.148 28.2157 311.215 30.3955 311.748C48.9244 316.31 76.3502 328.844 84.5754 335.422C89.0618 339.009 92.1162 337.488 93.7638 335.042V335.054Z" fill="#C97324"/>
<path d="M61.8004 314.485C58.9235 314.65 66.0968 322.508 67.8204 319.707C69.544 316.918 65.9954 314.244 61.8004 314.485Z" fill="#C97324"/>
<g style="mix-blend-mode:screen" opacity="0.3">
<path d="M33.5518 303.738C29.775 306.399 43.1964 309.923 44.4891 308.072C45.7818 306.235 36.1626 301.888 33.5518 303.738Z" fill="#F09535"/>
<path d="M82.2055 327.261C83.9798 331.633 90.6969 332.66 91.7108 331.899C93.409 330.619 91.8121 327.299 90.2913 328.097C87.8833 329.339 86.0203 326.69 85.2725 325.778C83.663 323.852 81.8 326.234 82.2182 327.261H82.2055Z" fill="#F09535"/>
<path d="M83.359 322.723C83.0802 323.331 82.1043 323.483 81.1791 323.052C80.254 322.634 79.7343 321.798 80.0005 321.189C80.2793 320.581 81.2552 320.429 82.1804 320.86C83.1055 321.278 83.6252 322.114 83.359 322.723Z" fill="#F09535"/>
</g>
<path d="M94.9427 330.124C94.7399 330.124 94.5372 330.022 94.4104 329.845C87.8328 320.086 60.1916 305.042 34.4007 300.264C34.0585 300.201 33.8304 299.872 33.8938 299.529C33.9571 299.187 34.2866 298.959 34.6288 299.022C60.7112 303.851 88.7453 319.174 95.4497 329.135C95.6398 329.426 95.5637 329.819 95.2722 330.009C95.1582 330.086 95.0441 330.111 94.9174 330.111L94.9427 330.124Z" fill="white"/>
<path d="M130.58 389.031C232.489 399.119 336.818 400.374 367.717 396.711C367.717 396.711 387.145 395.862 391.72 391.73C394.863 388.891 383.508 284.118 380.01 249.494C376.512 214.869 370.631 140.424 371.709 126.762C372.773 113.1 378.362 86.6501 372.596 84.6604C363.217 81.4286 289.951 78.4756 267.303 80.1993C244.655 81.9229 163.379 83.6592 163.379 83.6592C163.379 83.6592 147.195 212.652 143.418 240.787C140.111 265.437 128.806 360.211 126.055 383.378C125.726 386.192 127.766 388.739 130.593 389.018L130.58 389.031Z" fill="#F09535"/>
<path d="M391.721 391.73C394.864 388.891 383.509 284.118 380.011 249.494C376.513 214.869 370.632 140.424 371.709 126.762C372.381 118.195 374.827 104.583 375.131 95.154C373.839 82.8605 363.978 86.0416 363.978 97.0677C363.978 102.695 366.386 108.702 364.84 116.078C363.687 121.553 362.965 127.662 362.965 127.662C362.965 127.662 301.257 123.733 262.868 123.594C227.699 123.467 188.791 124.81 158.399 123.315C158.171 125.127 157.943 126.977 157.702 128.853C195.229 131.781 260.561 126.28 281.245 127.662C304.057 129.183 366.006 132.009 366.006 132.009C366.006 132.009 365.385 216.732 367.73 249.963C371.354 301.544 367.768 343.101 367.73 396.711C367.73 396.711 387.159 395.862 391.734 391.73H391.721Z" fill="#C97324"/>
<path d="M367.73 391.313C367.375 391.313 367.096 391.022 367.096 390.679C367.185 374.723 367.565 359.756 367.933 345.282C368.731 313.776 369.479 284.005 367.084 250.015C364.764 217.139 365.36 132.859 365.36 132.01C365.36 131.668 365.652 131.377 365.994 131.377C366.349 131.377 366.627 131.668 366.627 132.01C366.627 132.859 366.032 217.088 368.338 249.913C370.734 283.967 369.986 313.763 369.188 345.308C368.82 359.781 368.44 374.736 368.351 390.679C368.351 391.034 368.072 391.313 367.717 391.313H367.73Z" fill="#94411E"/>
<path d="M362.964 128.283C362.964 128.283 362.939 128.283 362.926 128.283C362.305 128.245 300.788 124.354 262.868 124.215C250.79 124.164 238.078 124.303 225.798 124.43C205.292 124.646 184.101 124.861 165.826 124.24C165.471 124.24 165.205 123.936 165.217 123.581C165.217 123.226 165.547 122.96 165.877 122.973C184.127 123.581 205.304 123.366 225.798 123.163C238.091 123.036 250.803 122.909 262.893 122.947C298.861 123.087 355.981 126.585 362.432 126.99C362.648 125.317 363.307 120.4 364.244 115.952C365.208 111.351 364.599 107.333 364.016 103.455C363.687 101.237 363.37 99.1463 363.37 97.0678C363.37 90.9337 366.31 87.2077 369.225 86.7007C371.671 86.2825 373.788 87.9427 374.928 91.1365C375.042 91.466 374.878 91.8335 374.548 91.9476C374.219 92.0743 373.851 91.8969 373.737 91.5674C372.812 88.9947 371.215 87.6386 369.441 87.9554C367.109 88.361 364.637 91.6941 364.637 97.0804C364.637 99.0575 364.941 101.111 365.271 103.278C365.841 107.08 366.5 111.402 365.486 116.23C364.359 121.617 363.623 127.7 363.611 127.763C363.573 128.08 363.307 128.321 362.977 128.321L362.964 128.283Z" fill="#94411E"/>
<g style="mix-blend-mode:color-burn" opacity="0.25">
<path d="M152.975 166.203C156.105 166.19 168.817 166.33 168.044 169.46C167.169 173.021 168.285 182.375 174.381 184.985C174.381 184.985 174.938 194.567 185.546 194.491C185.546 194.491 200.235 100.034 205.165 99.6917C210.095 99.3495 223.415 109.78 226.381 112.986C229.346 116.193 231.97 127.599 236.482 131.883C240.993 136.166 252.995 135.33 257.507 130.463L221.742 82.1641C193.201 83.0512 163.38 83.6849 163.38 83.6849C163.38 83.6849 158.171 125.166 152.975 166.216V166.203Z" fill="#181818"/>
</g>
<g style="mix-blend-mode:color-burn" opacity="0.25">
<path d="M379.769 380.198C375.321 381.402 372.52 362.493 368.325 354.534C368.325 354.534 332.839 367.841 322.155 363.038L327.807 348.286C327.807 348.286 303.018 351.214 294.818 355.738C286.618 360.25 262.703 386.624 262.703 386.624C262.703 386.624 255.72 377.841 252.906 367.689C250.093 357.538 258.178 333.99 258.178 333.99C258.178 333.99 234.453 353.368 233.072 357.322C231.69 361.276 232.844 380.287 232.844 380.287C232.844 380.287 154.178 391.237 127.678 369.73C126.993 375.446 126.436 380.148 126.043 383.405C125.713 386.218 127.754 388.766 130.58 389.044C232.489 399.133 336.818 400.387 367.717 396.725C367.717 396.725 387.145 395.876 391.72 391.744C393.039 390.553 391.809 371.415 389.667 347.031C388.691 361.188 384.927 378.804 379.769 380.198Z" fill="#181818"/>
</g>
<path d="M129.909 351.643C129.909 351.643 129.858 351.643 129.833 351.643C129.491 351.605 129.237 351.288 129.275 350.934C134.142 310.302 140.428 258.188 142.773 240.724C143.774 233.309 145.7 218.304 148.527 196.1C148.577 195.757 148.894 195.517 149.236 195.555C149.579 195.605 149.832 195.922 149.781 196.264C146.955 218.469 145.016 233.474 144.028 240.888C141.683 258.353 135.397 310.454 130.53 351.086C130.492 351.402 130.213 351.643 129.896 351.643H129.909Z" fill="white"/>
<path d="M372.584 85.294C372.521 85.294 372.445 85.294 372.381 85.256C363.282 82.1129 290.636 79.0586 267.342 80.8329C262.97 81.1624 256.075 81.5173 246.849 81.8975C246.481 81.9101 246.203 81.644 246.19 81.2891C246.177 80.9343 246.443 80.6428 246.798 80.6301C256.012 80.2626 262.894 79.895 267.253 79.5655C290.636 77.7912 363.624 80.8962 372.8 84.052C373.129 84.1661 373.307 84.5209 373.192 84.8631C373.104 85.1292 372.85 85.294 372.597 85.294H372.584Z" fill="white"/>
<path d="M625.347 357.271V440.904C557.999 448.356 483.035 443.971 463.809 446.734C395.346 456.594 345.082 445.784 345.082 445.784C335.222 447.57 326.781 442.932 326.781 442.932C315.375 444.237 310.8 438.42 310.8 438.42C302.663 442.108 294.185 439.041 291.054 435.353C288.52 432.362 287.683 428.978 287.683 428.978C287.683 428.978 249.067 398.257 246.773 391.743C244.479 385.241 239.954 362.251 241.526 355.674C243.123 349.096 258.179 333.977 258.179 333.977C265.111 335.181 269.927 341.961 268.66 346.638C267.393 351.314 260.65 357.448 260.08 362.023C259.725 364.824 264.288 379.196 265.403 381.338C266.949 384.304 275.707 391.135 275.707 391.135C273.78 386.116 275.567 383.417 275.567 383.417C275.567 383.417 296.035 359.679 302.359 356.32C309.507 352.518 327.808 348.285 327.808 348.285C330.267 351.314 332.206 358.703 326.819 361.871C321.433 365.04 315.692 366.092 311.966 368.449C307.391 371.339 300.179 384.291 300.331 385.394C300.484 386.509 301.358 388.245 301.358 388.245C301.358 388.245 316.668 376.231 324.285 373.316C332.877 370.033 356.134 367.739 356.134 367.739C365.436 373.202 355.246 382.048 355.246 382.048L358.035 381.401C361.723 383.062 364.017 389.994 354.169 395.875L367.717 396.724C367.717 396.724 387.146 395.875 391.721 391.743C392.52 391.021 392.38 383.607 391.67 372.403C416.612 373.658 445.369 383.949 452.377 383.214C459.386 382.466 625.347 357.283 625.347 357.283V357.271Z" fill="#94411E"/>
<g style="mix-blend-mode:color-burn" opacity="0.25">
<path d="M287.696 428.965L275.732 391.109C275.732 391.109 274.173 389.892 272.26 388.27C275.403 400.576 277.684 411.361 277.342 420.537C283.273 425.442 287.696 428.952 287.696 428.952V428.965Z" fill="#181818"/>
<path d="M625.348 418.826C552.373 433.084 470.007 440.523 469.715 434.376C467.928 395.456 455.787 391.932 455.787 391.932C465.951 410.182 460.692 436.632 460.692 436.632C402.9 451.993 344.867 436.48 311.092 434.845C306.162 434.605 295.77 438.052 287.684 428.965C287.684 428.965 288.52 432.349 291.055 435.34C294.185 439.028 302.664 442.095 310.801 438.407C310.801 438.407 315.376 444.224 326.782 442.918C326.782 442.918 335.223 447.557 345.083 445.77C345.083 445.77 395.346 456.581 463.81 446.721C483.035 443.958 558 448.343 625.348 440.891V418.813V418.826Z" fill="#181818"/>
<path d="M311.966 368.436C315.693 366.078 321.434 365.026 326.82 361.858C329.545 360.248 330.394 357.562 330.242 354.913C329.773 358.284 312.676 362.897 309.901 365.584C307.125 368.271 296.276 380.64 296.2 384.518C296.124 388.397 298.596 391.121 298.596 391.121L301.359 388.232C301.359 388.232 300.484 386.495 300.332 385.38C300.18 384.278 307.391 371.325 311.966 368.436Z" fill="#181818"/>
<path d="M380.176 395.457C373.941 396.445 367.718 396.711 367.718 396.711L354.17 395.862C349.253 399.651 341.167 403.175 341.167 403.175C345.957 406.774 348.53 416.989 348.53 416.989C353.84 412.794 380.05 406.825 380.176 395.457Z" fill="#181818"/>
<path d="M322.891 393.936C324.716 392.072 355.247 382.035 355.247 382.035C355.247 382.035 359.822 378.055 360.038 373.784C355.893 379.779 350.19 380.717 339.671 382.986C330.052 385.064 322.625 389.094 321.434 390.678C320.509 391.908 321.624 396.635 322.169 398.688C321.89 397.421 321.637 395.216 322.879 393.948L322.891 393.936Z" fill="#181818"/>
<path d="M322.182 398.688C322.309 399.271 322.448 399.651 322.448 399.651C322.448 399.651 322.334 399.271 322.182 398.688Z" fill="#181818"/>
</g>
<path d="M346.426 384.671C346.426 384.671 347.807 388.397 351.153 390.412C351.584 390.678 357.756 388.118 358.238 386.217C358.719 384.316 357.794 381.642 353.599 382.529C349.404 383.403 346.426 384.684 346.426 384.684V384.671Z" fill="#FFE78F"/>
<path d="M343.346 370.527C342.586 371.059 345.539 376.344 347.668 376.749C349.797 377.155 354.981 376.357 357.363 374.646C359.733 372.947 358.605 368.626 355.247 368.55C351.888 368.474 344.284 369.855 343.334 370.527H343.346Z" fill="#FFE78F"/>
<path d="M314.134 351.922C314.425 354.114 315.794 356.903 317.936 357.257C320.077 357.612 328.391 354.343 329.405 352.923C330.419 351.504 329.925 348.31 327.821 348.272C325.717 348.234 314.134 351.922 314.134 351.922Z" fill="#FFE78F"/>
<path d="M248.37 344.825C250.981 346.384 254.783 347.816 256.798 346.029C258.813 344.242 262.387 340.313 262.679 337.943C263.021 335.193 260.347 333.102 258.192 333.951C256.025 334.8 248.37 344.812 248.37 344.812V344.825Z" fill="#FFE78F"/>
<path d="M348.529 417.621C348.238 417.621 347.984 417.431 347.908 417.139C347.883 417.025 345.183 406.24 340.836 403.731C340.633 403.617 340.507 403.389 340.519 403.148C340.519 402.907 340.672 402.704 340.887 402.603C340.976 402.565 349.429 398.623 353.776 395.353C354.055 395.138 354.448 395.201 354.663 395.48C354.879 395.759 354.815 396.152 354.536 396.367C350.924 399.08 344.79 402.134 342.395 403.287C346.628 406.823 349.023 416.404 349.125 416.835C349.214 417.177 348.998 417.52 348.656 417.596C348.605 417.596 348.555 417.608 348.504 417.608L348.529 417.621Z" fill="#181818"/>
<path d="M351.152 416.505C350.962 416.505 350.772 416.417 350.645 416.252C350.43 415.973 350.493 415.58 350.772 415.365C360.1 408.293 390.91 405.885 392.215 405.784C392.582 405.746 392.874 406.024 392.899 406.367C392.925 406.721 392.659 407.026 392.316 407.051C391.999 407.076 360.569 409.522 351.533 416.366C351.418 416.455 351.279 416.493 351.152 416.493V416.505Z" fill="#181818"/>
<path d="M326.731 417.9C326.731 417.9 326.693 417.9 326.68 417.9C326.325 417.875 326.072 417.571 326.097 417.216C326.249 415.353 325.185 411.867 324.057 408.192C322.257 402.312 320.394 396.228 322.371 393.567C324.792 390.322 351.977 382.325 355.056 381.425C355.399 381.337 355.741 381.527 355.842 381.856C355.944 382.186 355.741 382.541 355.411 382.642C343.435 386.127 325.02 392.122 323.385 394.314C321.788 396.456 323.714 402.755 325.261 407.812C326.427 411.614 327.529 415.213 327.339 417.317C327.314 417.647 327.035 417.9 326.705 417.9H326.731Z" fill="#181818"/>
<path d="M306.174 416.428C305.908 416.428 305.667 416.264 305.578 416.01C302.537 407.417 297.454 392.843 297.569 391.854C297.695 390.739 299.977 388.622 300.94 387.76C301.193 387.532 301.599 387.545 301.84 387.811C302.068 388.077 302.042 388.47 301.789 388.711C300.255 390.067 298.899 391.575 298.836 392.006C298.925 393.058 303.753 407.037 306.782 415.592C306.896 415.921 306.732 416.289 306.402 416.403C306.326 416.428 306.263 416.441 306.187 416.441L306.174 416.428Z" fill="#181818"/>
<path d="M287.341 427.937C287.075 427.937 286.821 427.772 286.732 427.506C286.644 427.252 278.393 401.892 275.123 391.31C275.022 390.98 275.212 390.625 275.542 390.524C275.871 390.423 276.226 390.613 276.327 390.942C279.597 401.525 287.86 426.872 287.936 427.126C288.038 427.455 287.86 427.81 287.531 427.924C287.467 427.949 287.404 427.949 287.328 427.949L287.341 427.937Z" fill="#181818"/>
<path d="M460.704 437.265C460.704 437.265 460.64 437.265 460.615 437.265C460.273 437.215 460.032 436.898 460.083 436.543C460.134 436.15 465.545 396.925 450.806 387.838C450.514 387.648 450.413 387.268 450.603 386.963C450.793 386.659 451.173 386.571 451.477 386.761C466.914 396.279 461.578 435.073 461.338 436.72C461.287 437.037 461.021 437.265 460.716 437.265H460.704Z" fill="#181818"/>
<path d="M378.68 396.823C377.578 396.823 376.437 396.798 375.258 396.735C374.903 396.722 374.637 396.418 374.663 396.076C374.675 395.721 374.941 395.442 375.322 395.48C395.764 396.519 403.444 387.584 403.52 387.483C403.749 387.217 404.141 387.179 404.408 387.394C404.674 387.622 404.712 388.015 404.496 388.281C404.192 388.649 397.184 396.823 378.68 396.823Z" fill="#181818"/>
<path d="M451.566 383.873C448.258 383.873 442.15 382.403 433.988 380.439C422.227 377.613 406.131 373.747 391.645 373.025C391.29 373.012 391.024 372.708 391.05 372.366C391.062 372.024 391.328 371.719 391.709 371.77C406.309 372.505 422.48 376.383 434.292 379.222C442.796 381.263 449.513 382.885 452.327 382.581C459.234 381.846 623.611 356.904 625.271 356.65C625.613 356.6 625.943 356.841 625.994 357.183C626.044 357.525 625.803 357.854 625.461 357.905C623.801 358.159 459.411 383.1 452.466 383.835C452.2 383.861 451.908 383.873 451.592 383.873H451.566Z" fill="white"/>
<path d="M248.7 99.8308C245.823 94.6853 215.533 73.0133 209.969 72.6458C178.107 70.5927 150.365 79.3248 150.365 79.3248C150.365 79.3248 139.605 75.6748 128.427 79.3501C121.963 81.4793 89.2397 101.44 83.2198 106.979C77.1998 112.517 38.3297 169.789 31.4606 172.387C11.7657 179.84 -187.105 255.245 -187.105 255.245V352.236C-76.9965 295.42 80.6977 214.679 80.6977 214.679C103.485 205.884 110.76 194.516 119.568 192.424C142.989 186.848 150.77 183.299 150.77 183.299L155.852 144.518C155.852 144.518 171.859 149.537 172.81 150.779C173.38 151.514 176.472 158.421 179.02 164.124C177.258 166.887 173.849 172.273 173.038 173.896C170.706 178.547 174.66 182.856 179.438 182.057C178.741 184.288 178.247 186.341 178.45 187.52C179.552 193.983 185.56 194.49 185.56 194.49C185.56 194.49 196.814 174.415 196.548 168.116C196.433 165.189 195.952 164.073 195.952 164.073C195.952 164.073 205.812 151.032 204.899 146.85C204.025 142.807 202.935 141.185 202.935 141.185C202.935 141.185 207.561 109.602 205.178 99.6913C204.228 95.7372 200.033 93.4432 200.033 93.4432C200.033 93.4432 205.077 93.1137 206.547 93.2912C211.54 93.8868 227.383 104.026 230.665 108.309C233.935 112.58 239.422 126.686 242.667 128.967C250.233 134.29 257.508 130.438 257.508 130.438C257.508 130.438 251.057 104.026 248.7 99.8181V99.8308Z" fill="#94411E"/>
<g style="mix-blend-mode:color-burn" opacity="0.25">
<path d="M205.242 88.6279C199.044 86.4734 171.352 79.655 159.933 76.8794C153.926 78.2228 150.365 79.3381 150.365 79.3381C189.374 85.4849 200.007 93.4566 200.007 93.4566C200.007 93.4566 205.051 93.1271 206.522 93.3045C211.515 93.9002 227.357 104.039 230.639 108.323C233.909 112.594 239.397 126.7 242.641 128.981C244.986 130.628 247.305 131.401 249.384 131.668C244.289 126.459 237.851 108.779 234.442 105.37C230.639 101.568 213.061 91.3527 205.216 88.6152L205.242 88.6279Z" fill="#181818"/>
<path d="M141.341 146.952C141.341 146.952 140.872 151.983 131.722 154.67C132.558 160.221 129.022 167.356 127.387 173.883C125.587 181.069 118.059 185.999 110.455 188.623C102.851 191.246 78.695 211.119 68.4801 214.071C68.4801 214.071 50.6609 216.657 34.3753 190.156C35.3258 204.693 43.9566 211.942 43.1708 214.071C39.6095 223.703 -6.58594 245.325 -66.4943 270.203V302.381C43.6144 245.565 80.6974 214.667 80.6974 214.667C103.485 205.872 110.759 194.503 119.568 192.412C142.988 186.836 150.77 183.287 150.77 183.287L155.852 144.506L147.602 141.946C147.602 141.946 144.649 145.52 141.354 146.939L141.341 146.952Z" fill="#181818"/>
<path d="M179.019 164.111C177.258 166.874 173.848 172.261 173.037 173.883C170.705 178.534 174.66 182.843 179.438 182.045C185.242 172.742 181.998 170.005 179.019 164.099V164.111Z" fill="#181818"/>
</g>
<path d="M68.3915 214.654C56.719 214.654 45.3127 209.585 32.5377 188.382C32.3603 188.078 32.449 187.697 32.7532 187.507C33.0573 187.33 33.4375 187.419 33.6276 187.723C51.3454 217.126 66.8579 214.426 79.3161 212.246C79.671 212.183 79.9878 212.424 80.0512 212.766C80.1146 213.108 79.8865 213.438 79.5316 213.501C75.7675 214.16 72.0668 214.654 68.4041 214.654H68.3915Z" fill="#181818"/>
<path d="M195.952 164.707C195.711 164.707 195.496 164.58 195.381 164.352C195.267 164.111 183.582 139.955 180.781 136.432C176.853 131.477 145.98 120.742 145.663 120.641C145.333 120.526 145.156 120.159 145.27 119.829C145.384 119.5 145.739 119.322 146.081 119.437C147.361 119.88 177.613 130.399 181.783 135.646C184.672 139.283 196.04 162.806 196.522 163.807C196.674 164.124 196.547 164.504 196.231 164.656C196.142 164.694 196.053 164.719 195.952 164.719V164.707Z" fill="#181818"/>
<path d="M202.922 141.413C202.681 141.413 202.453 141.273 202.339 141.045C197.891 131.135 188.829 111.744 186.408 109.323C183.937 106.852 159.756 100.414 150.643 98.145C150.301 98.0563 150.098 97.7141 150.187 97.3719C150.276 97.0298 150.618 96.827 150.96 96.9157C154.344 97.7648 184.153 105.255 187.308 108.423C190.489 111.604 202.96 139.334 203.493 140.513C203.632 140.83 203.493 141.21 203.176 141.349C203.087 141.388 202.998 141.4 202.922 141.4V141.413Z" fill="#181818"/>
<path d="M200.019 94.0768C199.905 94.0768 199.791 94.0515 199.69 93.9754C190.223 88.0948 168.589 82.7973 156.245 80.9216C155.902 80.8709 155.662 80.5413 155.712 80.1992C155.763 79.857 156.093 79.6162 156.435 79.6669C168.88 81.5679 190.742 86.9162 200.362 92.8981C200.653 93.0882 200.754 93.4685 200.564 93.7726C200.45 93.9627 200.235 94.0768 200.019 94.0768Z" fill="#181818"/>
<path d="M155.852 145.151C155.852 145.151 155.725 145.151 155.662 145.126L141.632 140.766C141.303 140.665 141.112 140.31 141.214 139.968C141.315 139.638 141.67 139.448 142.012 139.549L156.042 143.909C156.372 144.011 156.562 144.365 156.46 144.708C156.372 144.974 156.131 145.151 155.852 145.151Z" fill="#181818"/>
<path d="M133.648 148.992C130.771 148.992 127.666 148.46 124.662 147.18C124.345 147.04 124.193 146.673 124.333 146.343C124.472 146.026 124.84 145.874 125.169 146.014C133.255 149.461 142.494 147.116 144.775 143.859C144.978 143.568 145.371 143.504 145.663 143.707C145.954 143.91 146.017 144.303 145.815 144.594C144.154 146.951 139.338 149.005 133.661 149.005L133.648 148.992Z" fill="#181818"/>
<path d="M123.002 156.19C122.394 156.19 122.001 156.177 121.925 156.177C121.57 156.165 121.304 155.873 121.316 155.518C121.329 155.163 121.633 154.872 121.976 154.91C122.102 154.91 134.827 155.341 138.185 150.652C138.388 150.373 138.781 150.297 139.072 150.5C139.351 150.702 139.427 151.095 139.224 151.387C136.056 155.81 126.323 156.19 123.027 156.19H123.002Z" fill="#181818"/>
<path d="M127.387 174.529C127.387 174.529 127.362 174.529 127.349 174.529C126.995 174.503 126.741 174.212 126.754 173.857C126.842 172.488 127.501 170.79 128.262 168.838C129.529 165.594 131.113 161.563 131.075 156.747C131.075 156.393 131.354 156.114 131.709 156.114C132.051 156.114 132.343 156.393 132.343 156.747C132.368 161.804 130.746 165.961 129.441 169.307C128.718 171.17 128.084 172.767 128.008 173.946C127.983 174.288 127.704 174.541 127.375 174.541L127.387 174.529Z" fill="#181818"/>
<path d="M179.45 182.615C179.323 182.615 179.209 182.577 179.095 182.513C178.804 182.323 178.728 181.93 178.918 181.639C179.957 180.08 182.581 175.568 182.213 173.363C181.744 170.549 178.487 164.491 178.449 164.441C178.284 164.136 178.398 163.744 178.702 163.579C179.007 163.414 179.399 163.528 179.564 163.832C179.704 164.086 182.961 170.131 183.455 173.147C183.975 176.303 180.134 182.095 179.97 182.336C179.843 182.513 179.653 182.615 179.437 182.615H179.45Z" fill="#181818"/>
<path d="M191.021 183.908C191.021 183.908 188.486 182.134 187.004 183.021C185.521 183.908 183.316 190.511 183.316 191.335C183.316 192.158 185.559 194.478 185.559 194.478L191.034 183.895L191.021 183.908Z" fill="#FFE78F"/>
<path d="M253.692 115.685C253.692 115.685 247.774 116.129 247.71 117.612C247.647 119.095 250.562 129.55 251.094 130.146C251.627 130.742 256.176 131.692 257.507 130.45C258.344 129.652 253.692 115.685 253.692 115.685Z" fill="#FFE78F"/>
<path d="M-66.4948 206.036C-66.7609 206.036 -67.0144 205.872 -67.1031 205.606C-67.2172 205.276 -67.0271 204.921 -66.6975 204.807C-65.9118 204.554 11.7777 179.156 31.2317 171.805C35.2746 170.271 52.3334 147.015 64.7916 130.02C73.1815 118.576 80.4182 108.69 82.7881 106.51C88.8715 100.909 121.57 80.9349 128.223 78.7424C138.78 75.2698 148.793 78.1594 150.364 78.6537C152.924 77.8806 179.78 70.0736 210.006 72.0127C216.204 72.4056 246.405 94.4197 249.257 99.5145C249.421 99.8186 249.32 100.212 249.016 100.376C248.712 100.541 248.319 100.44 248.154 100.135C245.252 94.9266 214.886 73.5969 209.93 73.28C178.55 71.2649 150.833 79.845 150.554 79.9337C150.427 79.9717 150.288 79.9717 150.161 79.9337C150.06 79.8957 139.465 76.3977 128.629 79.959C122.267 82.0502 89.4798 102.087 83.6626 107.448C81.3814 109.539 74.1701 119.374 65.8308 130.768C48.9875 153.745 35.7816 171.45 31.7007 172.984C12.2213 180.347 -65.5062 205.745 -66.2793 206.011C-66.3427 206.036 -66.406 206.036 -66.4821 206.036H-66.4948Z" fill="white"/>
<path d="M217.817 266.43L218.1 248.368L221.17 248.416L221.063 255.244C221.89 250.884 223.889 247.881 227.104 247.931C232.089 248.009 232.395 251.555 232.283 258.708L232.158 266.655L229.088 266.607L229.211 258.732C229.311 252.374 229.355 249.556 226.176 249.506C222.78 249.453 221.079 254.232 220.991 259.831L220.887 266.478L217.817 266.43Z" fill="#94411E"/>
<path d="M242.409 267.43C237.749 267.357 234.045 263.902 234.156 256.822C234.239 251.512 237.038 248.159 241.698 248.232C246.358 248.305 250.062 251.759 249.951 258.84C249.868 264.15 247.069 267.503 242.409 267.43ZM237.775 256.481C237.663 263.634 239.886 267.029 242.379 267.068C244.871 267.107 246.26 263.768 246.332 259.217C246.444 252.028 244.257 248.633 241.729 248.594C239.272 248.555 237.847 251.893 237.775 256.481ZM239.881 258.104C241.511 257.877 241.804 257.592 242.119 255.971C242.346 257.601 242.631 257.894 244.252 258.172C242.622 258.436 242.329 258.72 242.014 260.341C241.787 258.712 241.502 258.418 239.881 258.104Z" fill="#94411E"/>
<path d="M258.431 267.572C253.59 267.497 251.358 264.643 251.416 260.958L254.667 261.009C254.621 263.972 255.258 267.161 258.653 267.215C259.882 267.234 262.307 266.947 262.353 264.02C262.446 258.096 252.572 258.7 252.675 252.126C252.719 249.308 255.48 248.375 258.406 248.421C260.826 248.459 263.017 249.288 264.382 249.816L264.331 253.067C263.096 251.205 261.471 248.831 258.4 248.783C257.063 248.762 255.782 249.862 255.753 251.704C255.68 256.328 265.396 256.625 265.3 262.73C265.235 266.884 261.646 267.623 258.431 267.572Z" fill="#94411E"/>
<path d="M267.029 267.201L267.482 238.302L270.553 238.35L270.276 256.015C271.103 251.655 273.101 248.651 276.316 248.702C281.302 248.78 281.607 252.326 281.495 259.478L281.371 267.426L278.3 267.378L278.424 259.503C278.523 253.145 278.567 250.327 275.388 250.277C271.993 250.224 270.292 255.003 270.204 260.602L270.1 267.249L267.029 267.201Z" fill="#94411E"/>
<path d="M283.54 267.46L283.822 249.398L286.893 249.446L286.774 257.032C287.788 252.278 290.587 248.925 294.38 248.985L294.332 252.055C288.227 251.96 286.795 255.731 286.714 260.861L286.61 267.508L283.54 267.46Z" fill="#94411E"/>
<path d="M295.71 267.651L295.993 249.588L299.064 249.636L298.781 267.699L295.71 267.651ZM295.397 246.146L297.634 244.013L299.768 246.215L297.53 248.384L295.397 246.146Z" fill="#94411E"/>
<path d="M306.378 268.324C302.332 268.26 300.649 264.982 300.719 260.538C300.842 252.699 304.475 249.143 309.388 249.22C311.013 249.245 311.691 249.834 312.594 249.848L312.764 239.011L315.834 239.059L315.381 267.959L312.311 267.911L312.415 261.264C311.548 265.875 309.485 268.372 306.378 268.324ZM303.965 260.951C303.916 264.021 304.778 266.709 307.306 266.748C310.522 266.799 312.386 263.106 312.491 256.423L312.498 255.953C312.561 251.907 311.55 249.615 309.635 249.585C306.673 249.539 304.09 252.967 303.965 260.951Z" fill="#94411E"/>
<path d="M325.63 268.733C320.753 268.657 317.271 264.881 317.377 258.126C317.46 252.815 320.259 249.462 324.919 249.535C328.712 249.595 331.96 252.139 331.863 258.352L331.857 258.714L320.55 258.537C320.676 264.356 322.871 267.245 326.447 267.301C328.94 267.34 330.874 266.142 331.771 264.205L332.132 264.21C331.004 267.047 328.52 268.779 325.63 268.733ZM320.563 257.706L320.556 258.175L328.684 258.303C328.778 252.306 327.189 249.932 324.949 249.897C322.168 249.854 320.636 253.082 320.563 257.706Z" fill="#94411E"/>
<path fill-rule="evenodd" clip-rule="evenodd" d="M202.891 243.746C199.41 237.493 190.465 237.353 186.791 243.494L180.395 254.181C176.72 260.322 181.071 268.139 188.227 268.251L200.68 268.446C207.836 268.558 212.429 260.881 208.948 254.628L202.891 243.746ZM185.375 254.687C192.276 253.724 193.519 252.52 194.851 245.654C195.814 252.556 197.018 253.799 203.886 254.977C196.983 256.094 195.739 257.298 194.408 264.164C193.445 257.262 192.24 256.019 185.375 254.687Z" fill="#94411E"/>
</svg>
